<?xml version="1.0" encoding="UTF-8"?>
<svg version="1.1" xmlns="http://www.w3.org/2000/svg" width="48" height="48">
<path d="M0 0 C0.8245166 -0.00478363 1.6490332 -0.00956726 2.49853516 -0.01449585 C4.23667313 -0.01788872 5.97487544 -0.00872903 7.71289062 0.01220703 C10.36733825 0.03898521 13.01755825 0.01244254 15.671875 -0.01953125 C17.36459263 -0.01622704 19.05730763 -0.00982056 20.75 0 C21.93456787 -0.01518173 21.93456787 -0.01518173 23.14306641 -0.03067017 C27.11276955 0.05339275 28.99170918 0.40801499 32.37255859 2.66650391 C35.0441572 6.66575868 35.09944932 9.57732793 35.0390625 14.2890625 C35.04384613 15.1135791 35.04862976 15.9380957 35.05355835 16.78759766 C35.05695122 18.52573563 35.04779153 20.26393794 35.02685547 22.00195312 C35.00007729 24.65640075 35.02661996 27.30662075 35.05859375 29.9609375 C35.05528954 31.65365513 35.04888306 33.34637013 35.0390625 35.0390625 C35.04918365 35.82877441 35.05930481 36.61848633 35.06973267 37.43212891 C34.98566975 41.40183205 34.63104751 43.28077168 32.37255859 46.66162109 C28.37330382 49.3332197 25.46173457 49.38851182 20.75 49.328125 C19.5132251 49.33530045 19.5132251 49.33530045 18.25146484 49.34262085 C16.51332687 49.34601372 14.77512456 49.33685403 13.03710938 49.31591797 C10.38266175 49.28913979 7.73244175 49.31568246 5.078125 49.34765625 C3.38540737 49.34435204 1.69269237 49.33794556 0 49.328125 C-0.78971191 49.33824615 -1.57942383 49.34836731 -2.39306641 49.35879517 C-6.36276955 49.27473225 -8.24170918 48.92011001 -11.62255859 46.66162109 C-14.2941572 42.66236632 -14.34944932 39.75079707 -14.2890625 35.0390625 C-14.29384613 34.2145459 -14.29862976 33.3900293 -14.30355835 32.54052734 C-14.30695122 30.80238937 -14.29779153 29.06418706 -14.27685547 27.32617188 C-14.25007729 24.67172425 -14.27661996 22.02150425 -14.30859375 19.3671875 C-14.30528954 17.67446987 -14.29888306 15.98175487 -14.2890625 14.2890625 C-14.29918365 13.49935059 -14.30930481 12.70963867 -14.31973267 11.89599609 C-14.23566975 7.92629295 -13.88104751 6.04735332 -11.62255859 2.66650391 C-7.62330382 -0.0050947 -4.71173457 -0.06038682 0 0 Z " fill="#FDFDFD" transform="translate(13.625,-0.6640625)"/>
<path d="M0 0 C0.33 0 0.66 0 1 0 C1 2.97 1 5.94 1 9 C1.66 9 2.32 9 3 9 C2.95875 8.071875 2.9175 7.14375 2.875 6.1875 C3 3 3 3 5 0 C6.84765625 -0.38818359 6.84765625 -0.38818359 9.0625 -0.3984375 C10.25746094 -0.40423828 10.25746094 -0.40423828 11.4765625 -0.41015625 C12.30929688 -0.39855469 13.14203125 -0.38695312 14 -0.375 C14.83273438 -0.38660156 15.66546875 -0.39820313 16.5234375 -0.41015625 C17.32007812 -0.40628906 18.11671875 -0.40242187 18.9375 -0.3984375 C19.66839844 -0.39505371 20.39929688 -0.39166992 21.15234375 -0.38818359 C23 0 23 0 25 3 C25.125 5.6875 25.125 5.6875 25 8 C25.66 8 26.32 8 27 8 C26.67 5.36 26.34 2.72 26 0 C26.66 0 27.32 0 28 0 C29.22691067 2.45382134 29.20175931 4.19984103 29.25 6.9375 C29.27578125 7.81277344 29.3015625 8.68804687 29.328125 9.58984375 C28.93805994 12.45496452 28.1168251 13.14009826 26 15 C26.09704471 17.91134141 27.06139192 19.07327422 28.9375 21.3125 C31.35735218 24.46564072 32.19663523 27.12924245 33 31 C32.67 31.66 32.34 32.32 32 33 C30.02 33 28.04 33 26 33 C25.34 30.69 24.68 28.38 24 26 C23.401875 26.763125 22.80375 27.52625 22.1875 28.3125 C21.1046875 29.6428125 21.1046875 29.6428125 20 31 C19.54625 31.598125 19.0925 32.19625 18.625 32.8125 C17 34 17 34 14.125 34.5 C9.98398861 33.83743818 8.65028528 32.16561852 6 29 C5.34 28.01 4.68 27.02 4 26 C3.34 28.31 2.68 30.62 2 33 C0.02 33 -1.96 33 -4 33 C-4.33 31.68 -4.66 30.36 -5 29 C-3.35 29 -1.7 29 0 29 C2.27611503 24.59002713 2.8494418 19.87744001 2 15 C0.59238335 13.33701839 0.59238335 13.33701839 -1 12 C-2.3899408 9.2201184 -2.18488204 7.0813674 -2 4 C-1 1.625 -1 1.625 0 0 Z " fill="#9FA5B9" transform="translate(10,9)"/>
<path d="M0 0 C0.74886475 0.00523682 1.49772949 0.01047363 2.26928711 0.01586914 C3.07817383 0.0190918 3.88706055 0.02231445 4.72045898 0.02563477 C5.5705957 0.03401367 6.42073242 0.04239258 7.29663086 0.05102539 C8.15063477 0.05553711 9.00463867 0.06004883 9.88452148 0.06469727 C12.00108749 0.07652166 14.11761771 0.0944577 16.23413086 0.11352539 C17.48482887 2.61492141 17.36715553 4.3874523 17.35913086 7.17602539 C17.36299805 8.52374023 17.36299805 8.52374023 17.36694336 9.89868164 C17.23413086 12.11352539 17.23413086 12.11352539 16.23413086 13.11352539 C14.90369461 13.21189749 13.56819742 13.24431131 12.23413086 13.24633789 C11.42975586 13.24762695 10.62538086 13.24891602 9.79663086 13.25024414 C8.95100586 13.24637695 8.10538086 13.24250977 7.23413086 13.23852539 C6.38850586 13.24239258 5.54288086 13.24625977 4.67163086 13.25024414 C3.86725586 13.24895508 3.06288086 13.24766602 2.23413086 13.24633789 C1.49163086 13.24520996 0.74913086 13.24408203 -0.01586914 13.24291992 C-1.76586914 13.11352539 -1.76586914 13.11352539 -2.76586914 12.11352539 C-2.86438085 10.28236656 -2.89559543 8.44732606 -2.89086914 6.61352539 C-2.89344727 5.61321289 -2.89602539 4.61290039 -2.89868164 3.58227539 C-2.71535554 0.17456661 -2.71535554 0.17456661 0 0 Z " fill="#2B4777" transform="translate(16.765869140625,8.886474609375)"/>
<path d="M0 0 C6.27 0 12.54 0 19 0 C20.12661107 6.75966641 20.12661107 6.75966641 17.6875 10.25 C17.23761719 10.91515625 16.78773437 11.5803125 16.32421875 12.265625 C13.53671835 15.91651048 13.53671835 15.91651048 10.1875 16.4375 C5.89784536 15.84872387 4.63809956 14.370905 2 11 C0.2121395 6.91346172 0 4.57512219 0 0 Z " fill="#C6C9D5" transform="translate(14,27)"/>
<path d="M0 0 C1.28874023 -0.0299707 1.28874023 -0.0299707 2.60351562 -0.06054688 C6.53646173 -0.05749571 8.83966559 -0.05568959 12.14453125 2.19921875 C14.41198822 5.77842769 13.83981339 8.27779911 13.5625 12.4375 C12.9025 12.4375 12.2425 12.4375 11.5625 12.4375 C10.9025 9.7975 10.2425 7.1575 9.5625 4.4375 C3.6225 4.7675 -2.3175 5.0975 -8.4375 5.4375 C-9.0975 8.0775 -9.7575 10.7175 -10.4375 13.4375 C-11.0975 13.4375 -11.7575 13.4375 -12.4375 13.4375 C-12.51871924 11.83417209 -12.57679134 10.22965974 -12.625 8.625 C-12.65980469 7.73167969 -12.69460938 6.83835937 -12.73046875 5.91796875 C-12.4375 3.4375 -12.4375 3.4375 -11.18847656 1.80957031 C-7.94120677 -0.73499971 -3.96952961 -0.03261003 0 0 Z " fill="#E9EFE3" transform="translate(23.4375,4.5625)"/>
<path d="M0 0 C1.64574566 -0.02688151 3.29161413 -0.04634123 4.9375 -0.0625 C5.85402344 -0.07410156 6.77054688 -0.08570313 7.71484375 -0.09765625 C10 0 10 0 11 1 C11.09823937 2.66429051 11.12973631 4.33281931 11.125 6 C11.12886719 7.36125 11.12886719 7.36125 11.1328125 8.75 C11 11 11 11 10 12 C8.66956375 12.0983721 7.33406656 12.13078592 6 12.1328125 C5.195625 12.13410156 4.39125 12.13539062 3.5625 12.13671875 C2.716875 12.13285156 1.87125 12.12898438 1 12.125 C0.154375 12.12886719 -0.69125 12.13273437 -1.5625 12.13671875 C-2.366875 12.13542969 -3.17125 12.13414063 -4 12.1328125 C-4.7425 12.13168457 -5.485 12.13055664 -6.25 12.12939453 C-8 12 -8 12 -9 11 C-9.14115161 8.32941149 -9.04247107 5.67567762 -9 3 C-8.7525 3.639375 -8.505 4.27875 -8.25 4.9375 C-7.18248868 7.16863668 -7.18248868 7.16863668 -4.9375 7.8125 C-3.9784375 7.9053125 -3.9784375 7.9053125 -3 8 C-2.67 7.67 -2.34 7.34 -2 7 C1.36629251 6.85363946 3.78419562 6.92806521 7 8 C7.66 5.69 8.32 3.38 9 1 C6.03 1 3.06 1 0 1 C0 0.67 0 0.34 0 0 Z " fill="#222F56" transform="translate(23,10)"/>
<path d="M0 0 C5.94 0 11.88 0 18 0 C17 4 17 4 15.5 5.75 C11.71501883 7.64249059 8.15117622 7.56364595 4 7 C1.4375 5.75 1.4375 5.75 0 4 C0 2.68 0 1.36 0 0 Z " fill="#E7EDE1" transform="translate(15,27)"/>
<path d="M0 0 C4.71703983 2.93221395 6.01364008 5.89584909 7.6171875 10.9765625 C8 13 8 13 7 15 C5.02 15 3.04 15 1 15 C-0.66251802 9.42567486 -1.18609365 5.6932495 0 0 Z " fill="#E3E8E0" transform="translate(35,27)"/>
<path d="M0 0 C0.32019737 4.5894956 -0.02586069 7.38854512 -3 11 C-4.32 11 -5.64 11 -7 11 C-4.46153846 0 -4.46153846 0 0 0 Z " fill="#E7EDE2" transform="translate(13,27)"/>
<path d="M0 0 C2.64 0.66 5.28 1.32 8 2 C7.67 3.32 7.34 4.64 7 6 C5.02 6 3.04 6 1 6 C0.67 4.02 0.34 2.04 0 0 Z " fill="#9CA2B4" transform="translate(35,36)"/>
<path d="M0 0 C3.3 0 6.6 0 10 0 C9.01 1.485 9.01 1.485 8 3 C5 3.375 5 3.375 2 3 C1.34 2.01 0.68 1.02 0 0 Z " fill="#505B7A" transform="translate(19,40)"/>
<path d="M0 0 C0.99 0.33 1.98 0.66 3 1 C3 2.65 3 4.3 3 6 C1.68 6 0.36 6 -1 6 C-1.042721 4.33388095 -1.04063832 2.66617115 -1 1 C-0.67 0.67 -0.34 0.34 0 0 Z " fill="#35A5D6" transform="translate(18,12)"/>
<path d="M0 0 C0.99 0 1.98 0 3 0 C3 2.31 3 4.62 3 7 C2.01 6.67 1.02 6.34 0 6 C0 4.02 0 2.04 0 0 Z " fill="#37ACDD" transform="translate(27,12)"/>
<path d="M0 0 C0.33 0 0.66 0 1 0 C1 1.65 1 3.3 1 5 C1.66 5 2.32 5 3 5 C3 6.65 3 8.3 3 10 C2.01 10 1.02 10 0 10 C0 6.7 0 3.4 0 0 Z " fill="#ACB0BF" transform="translate(34,12)"/>
</svg>
